<svg width="129" height="108" viewBox="0 0 129 108" fill="none" xmlns="http://www.w3.org/2000/svg">
<g id="&#240;&#159;&#166;&#134; icon &#34;bank&#34;" filter="url(#filter0_d_1_24)">
<g id="Group">
<path id="Vector" d="M66.4004 4.27725L112.628 20.912C114.425 21.559 115.864 23.4997 115.864 25.2094V40.5507C115.864 43.0921 113.552 45.1715 110.727 45.1715H18.2727C15.4477 45.1715 13.1364 43.0921 13.1364 40.5507V25.2094C13.1364 23.4997 14.5745 21.559 16.3723 20.912L62.5995 4.27725C63.6268 3.90758 65.3732 3.90758 66.4004 4.27725Z" stroke="black" stroke-width="6.29007" stroke-miterlimit="10" stroke-linecap="round" stroke-linejoin="round"/>
<path id="Vector_2" d="M115.864 96H13.1364V82.1376C13.1364 79.5961 15.4477 77.5168 18.2727 77.5168H110.727C113.552 77.5168 115.864 79.5961 115.864 82.1376V96Z" stroke="black" stroke-width="6.29007" stroke-miterlimit="10" stroke-linecap="round" stroke-linejoin="round"/>
<path id="Vector_3" d="M23.4091 77.5168V45.1711" stroke="black" stroke-width="6.29007" stroke-miterlimit="10" stroke-linecap="round" stroke-linejoin="round"/>
<path id="Vector_4" d="M43.9547 77.5168V45.1711" stroke="black" stroke-width="6.29007" stroke-miterlimit="10" stroke-linecap="round" stroke-linejoin="round"/>
<path id="Vector_5" d="M64.4999 77.5168V45.1711" stroke="black" stroke-width="6.29007" stroke-miterlimit="10" stroke-linecap="round" stroke-linejoin="round"/>
<path id="Vector_6" d="M85.0455 77.5168V45.1711" stroke="black" stroke-width="6.29007" stroke-miterlimit="10" stroke-linecap="round" stroke-linejoin="round"/>
<path id="Vector_7" d="M105.591 77.5168V45.1711" stroke="black" stroke-width="6.29007" stroke-miterlimit="10" stroke-linecap="round" stroke-linejoin="round"/>
<path id="Vector_8" d="M8 96H121" stroke="black" stroke-width="6.29007" stroke-miterlimit="10" stroke-linecap="round" stroke-linejoin="round"/>
<path id="Vector_9" d="M64.5 33.619C68.7549 33.619 72.2045 30.5158 72.2045 26.6878C72.2045 22.8598 68.7549 19.7566 64.5 19.7566C60.245 19.7566 56.7954 22.8598 56.7954 26.6878C56.7954 30.5158 60.245 33.619 64.5 33.619Z" stroke="black" stroke-width="6.29007" stroke-miterlimit="10" stroke-linecap="round" stroke-linejoin="round"/>
</g>
</g>
<defs>
<filter id="filter0_d_1_24" x="0.85498" y="0.85498" width="127.29" height="106.29" filterUnits="userSpaceOnUse" color-interpolation-filters="sRGB">
<feFlood flood-opacity="0" result="BackgroundImageFix"/>
<feColorMatrix in="SourceAlpha" type="matrix" values="0 0 0 0 0 0 0 0 0 0 0 0 0 0 0 0 0 0 127 0" result="hardAlpha"/>
<feOffset dy="4"/>
<feGaussianBlur stdDeviation="2"/>
<feComposite in2="hardAlpha" operator="out"/>
<feColorMatrix type="matrix" values="0 0 0 0 0 0 0 0 0 0 0 0 0 0 0 0 0 0 0.25 0"/>
<feBlend mode="normal" in2="BackgroundImageFix" result="effect1_dropShadow_1_24"/>
<feBlend mode="normal" in="SourceGraphic" in2="effect1_dropShadow_1_24" result="shape"/>
</filter>
</defs>
</svg>
